<svg xmlns="http://www.w3.org/2000/svg" viewBox="0 0 584.8 297.14"><defs><style>.cls-1{fill:#fff;stroke:#231f20;stroke-miterlimit:10;}</style></defs><g id="Layer_1" data-name="Layer 1"><path class="cls-1" d="M159.14,533.08l267.56-2.7s-33.11-100.63-32.43-109.44,37.84-78.4,37.84-78.4l50.67,190.54,60.81-15.54s-70.94-227-73-227.7-159.46,0-159.46,0l-231.75-.3L8.46,518.22l55.4,14.86,69.6-190.54Z" transform="translate(17.07 -264.34)"/></g><g id="Layer_2" data-name="Layer 2"><path class="cls-1" d="M153.73,533.08s-14.87,27.7-8.11,27.7H458.46l-21.62-27.7Z" transform="translate(17.07 -264.34)"/><polygon class="cls-1" points="501.21 272.8 560.67 256.58 583.64 272.8 496.48 296.45 501.21 272.8"/><path class="cls-1" d="M8.46,518.22l-24.32,14.86s92.56,28.38,93.24,27.7-13.52-27.7-13.52-27.7Z" transform="translate(17.07 -264.34)"/><polygon class="cls-1" points="182.97 21.45 207.29 0.5 398.51 0.5 420.13 21.45 182.97 21.45"/></g></svg>